{
  "accessors": [
    {
      "bufferView": 2,
      "componentType": 5126,
      "count": 65532,
      "max": [
        23960.107421875,
        4066.0,
        20271.70703125
      ],
      "min": [
        -23960.107421875,
        630.0,
        -20271.70703125
      ],
      "type": "VEC3"
    },
    {
      "bufferView": 2,
      "byteOffset": 786384,
      "componentType": 5126,
      "count": 65532,
      "max": [
        0.9111879467964172,
        1.0,
        0.7933309674263
      ],
      "min": [
        -0.8953063488006592,
        0.37757813930511475,
        -0.8640806674957275
      ],
      "type": "VEC3"
    },
    {
      "bufferView": 3,
      "componentType": 5126,
      "count": 65532,
      "max": [
        1.0,
        0.9013301730155945,
        0.06498889625072479,
        -1.0
      ],
      "min": [
        0.382620245218277,
        -0.9239048361778259,
        -0.07962599396705627,
        -1.0
      ],
      "type": "VEC4"
    },
    {
      "bufferView": 1,
      "componentType": 5126,
      "count": 65532,
      "max": [
        1.0,
        1.0
      ],
      "min": [
        0.0,
        0.0
      ],
      "type": "VEC2"
    },
    {
      "bufferView": 1,
      "byteOffset": 524256,
      "componentType": 5126,
      "count": 65532,
      "max": [
        1.0,
        1.0
      ],
      "min": [
        0.0,
        0.0
      ],
      "type": "VEC2"
    },
    {
      "bufferView": 0,
      "componentType": 5125,
      "count": 387630,
      "type": "SCALAR"
    },
    {
      "bufferView": 2,
      "byteOffset": 1572768,
      "componentType": 5126,
      "count": 65532,
      "max": [
        23867.41796875,
        5108.0,
        20271.70703125
      ],
      "min": [
        -23960.107421875,
        826.0,
        -7959.50390625
      ],
      "type": "VEC3"
    },
    {
      "bufferView": 2,
      "byteOffset": 2359152,
      "componentType": 5126,
      "count": 65532,
      "max": [
        0.9187628030776978,
        1.0,
        0.9132499694824219
      ],
      "min": [
        -0.903995156288147,
        0.33531975746154785,
        -0.9063877463340759
      ],
      "type": "VEC3"
    },
    {
      "bufferView": 3,
      "byteOffset": 1048512,
      "componentType": 5126,
      "count": 65532,
      "max": [
        1.0,
        0.9232626557350159,
        0.1142028272151947,
        -1.0
      ],
      "min": [
        0.3841691315174103,
        -0.9208345413208008,
        -0.1073339655995369,
        -1.0
      ],
      "type": "VEC4"
    },
    {
      "bufferView": 1,
      "byteOffset": 1048512,
      "componentType": 5126,
      "count": 65532,
      "max": [
        0.998065710067749,
        1.0
      ],
      "min": [
        0.0,
        0.303679496049881
      ],
      "type": "VEC2"
    },
    {
      "bufferView": 1,
      "byteOffset": 1572768,
      "componentType": 5126,
      "count": 65532,
      "max": [
        0.998065710067749,
        1.0
      ],
      "min": [
        0.0,
        0.303679496049881
      ],
      "type": "VEC2"
    },
    {
      "bufferView": 0,
      "byteOffset": 1550520,
      "componentType": 5125,
      "count": 388371,
      "type": "SCALAR"
    },
    {
      "bufferView": 2,
      "byteOffset": 3145536,
      "componentType": 5126,
      "count": 65532,
      "max": [
        23774.728515625,
        4650.0,
        20271.70703125
      ],
      "min": [
        -23960.107421875,
        1058.0,
        4261.8525390625
      ],
      "type": "VEC3"
    },
    {
      "bufferView": 2,
      "byteOffset": 3931920,
      "componentType": 5126,
      "count": 65532,
      "max": [
        0.8497713208198547,
        1.0,
        0.9382889270782471
      ],
      "min": [
        -0.867917537689209,
        0.290657103061676,
        -0.788829505443573
      ],
      "type": "VEC3"
    },
    {
      "bufferView": 3,
      "byteOffset": 2097024,
      "componentType": 5126,
      "count": 65532,
      "max": [
        1.0,
        0.8787790536880493,
        0.10531598329544067,
        -1.0
      ],
      "min": [
        0.41694602370262146,
        -0.908866822719574,
        -0.07311081886291504,
        -1.0
      ],
      "type": "VEC4"
    },
    {
      "bufferView": 1,
      "byteOffset": 2097024,
      "componentType": 5126,
      "count": 65532,
      "max": [
        0.9961314797401428,
        1.0
      ],
      "min": [
        0.0,
        0.6051182150840759
      ],
      "type": "VEC2"
    },
    {
      "bufferView": 1,
      "byteOffset": 2621280,
      "componentType": 5126,
      "count": 65532,
      "max": [
        0.9961314797401428,
        1.0
      ],
      "min": [
        0.0,
        0.6051182150840759
      ],
      "type": "VEC2"
    },
    {
      "bufferView": 0,
      "byteOffset": 3104004,
      "componentType": 5125,
      "count": 389121,
      "type": "SCALAR"
    },
    {
      "bufferView": 2,
      "byteOffset": 4718304,
      "componentType": 5126,
      "count": 17301,
      "max": [
        23682.0390625,
        2792.0,
        20271.70703125
      ],
      "min": [
        -23960.107421875,
        1084.0,
        -7959.50390625
      ],
      "type": "VEC3"
    },
    {
      "bufferView": 2,
      "byteOffset": 4925916,
      "componentType": 5126,
      "count": 17301,
      "max": [
        0.6002001166343689,
        1.0,
        0.5666983127593994
      ],
      "min": [
        -0.5988423824310303,
        0.5520245432853699,
        -0.761415958404541
      ],
      "type": "VEC3"
    },
    {
      "bufferView": 3,
      "byteOffset": 3145536,
      "componentType": 5126,
      "count": 17301,
      "max": [
        1.0,
        0.5991080403327942,
        0.014901483431458473,
        -1.0
      ],
      "min": [
        0.7950903177261353,
        -0.606491208076477,
        -0.006865853443741798,
        -1.0
      ],
      "type": "VEC4"
    },
    {
      "bufferView": 1,
      "byteOffset": 3145536,
      "componentType": 5126,
      "count": 17301,
      "max": [
        0.9941973090171814,
        1.0
      ],
      "min": [
        0.0,
        0.303679496049881
      ],
      "type": "VEC2"
    },
    {
      "bufferView": 1,
      "byteOffset": 3283944,
      "componentType": 5126,
      "count": 17301,
      "max": [
        0.9941973090171814,
        1.0
      ],
      "min": [
        0.0,
        0.303679496049881
      ],
      "type": "VEC2"
    },
    {
      "bufferView": 0,
      "byteOffset": 4660488,
      "componentType": 5125,
      "count": 100494,
      "type": "SCALAR"
    }
  ],
  "asset": {
    "extras": {
      "author": "Xavier Fischer - Elevation API (https://sketchfab.com/xfischer)",
      "license": "CC-BY-NC-SA-4.0 (http://creativecommons.org/licenses/by-nc-sa/4.0/)",
      "source": "https://sketchfab.com/3d-models/konigstein-brandberg-namibia-d85092898637441699efcd944931572e",
      "title": "Königstein, Brandberg, Namibia"
    },
    "generator": "Sketchfab-12.68.0",
    "version": "2.0"
  },
  "bufferViews": [
    {
      "buffer": 0,
      "byteLength": 5062464,
      "name": "floatBufferViews",
      "target": 34963
    },
    {
      "buffer": 0,
      "byteLength": 3422352,
      "byteOffset": 5062464,
      "byteStride": 8,
      "name": "floatBufferViews",
      "target": 34962
    },
    {
      "buffer": 0,
      "byteLength": 5133528,
      "byteOffset": 8484816,
      "byteStride": 12,
      "name": "floatBufferViews",
      "target": 34962
    },
    {
      "buffer": 0,
      "byteLength": 3422352,
      "byteOffset": 13618344,
      "byteStride": 16,
      "name": "floatBufferViews",
      "target": 34962
    }
  ],
  "buffers": [
    {
      "byteLength": 17040696,
      "uri": "scene.bin"
    }
  ],
  "images": [
    {
      "uri": "textures/material_0_baseColor.jpeg"
    },
    {
      "uri": "textures/material_0_normal.jpeg"
    }
  ],
  "materials": [
    {
      "name": "material_0",
      "normalTexture": {
        "index": 1,
        "texCoord": 1
      },
      "pbrMetallicRoughness": {
        "baseColorTexture": {
          "index": 0
        },
        "metallicFactor": 0.0
      }
    }
  ],
  "meshes": [
    {
      "name": "Object_0",
      "primitives": [
        {
          "attributes": {
            "NORMAL": 1,
            "POSITION": 0,
            "TANGENT": 2,
            "TEXCOORD_0": 3,
            "TEXCOORD_1": 4
          },
          "indices": 5,
          "material": 0,
          "mode": 4
        }
      ]
    },
    {
      "name": "Object_1",
      "primitives": [
        {
          "attributes": {
            "NORMAL": 7,
            "POSITION": 6,
            "TANGENT": 8,
            "TEXCOORD_0": 9,
            "TEXCOORD_1": 10
          },
          "indices": 11,
          "material": 0,
          "mode": 4
        }
      ]
    },
    {
      "name": "Object_2",
      "primitives": [
        {
          "attributes": {
            "NORMAL": 13,
            "POSITION": 12,
            "TANGENT": 14,
            "TEXCOORD_0": 15,
            "TEXCOORD_1": 16
          },
          "indices": 17,
          "material": 0,
          "mode": 4
        }
      ]
    },
    {
      "name": "Object_3",
      "primitives": [
        {
          "attributes": {
            "NORMAL": 19,
            "POSITION": 18,
            "TANGENT": 20,
            "TEXCOORD_0": 21,
            "TEXCOORD_1": 22
          },
          "indices": 23,
          "material": 0,
          "mode": 4
        }
      ]
    }
  ],
  "nodes": [
    {
      "children": [
        1
      ],
      "matrix": [
        1.0,
        0.0,
        0.0,
        0.0,
        0.0,
        2.220446049250313e-16,
        -1.0,
        0.0,
        0.0,
        1.0,
        2.220446049250313e-16,
        0.0,
        0.0,
        0.0,
        0.0,
        1.0
      ],
      "name": "Sketchfab_model"
    },
    {
      "children": [
        2
      ],
      "name": "root"
    },
    {
      "children": [
        3
      ],
      "matrix": [
        1.0,
        0.0,
        0.0,
        0.0,
        0.0,
        2.220446049250313e-16,
        1.0,
        0.0,
        0.0,
        -1.0,
        2.220446049250313e-16,
        0.0,
        0.0,
        0.0,
        0.0,
        1.0
      ],
      "name": "GLTF_SceneRootNode"
    },
    {
      "children": [
        4,
        5,
        6,
        7
      ],
      "name": "_0"
    },
    {
      "mesh": 0,
      "name": "Object_4"
    },
    {
      "mesh": 1,
      "name": "Object_5"
    },
    {
      "mesh": 2,
      "name": "Object_6"
    },
    {
      "mesh": 3,
      "name": "Object_7"
    }
  ],
  "samplers": [
    {
      "magFilter": 9729,
      "minFilter": 9987,
      "wrapS": 10497,
      "wrapT": 10497
    }
  ],
  "scene": 0,
  "scenes": [
    {
      "name": "Sketchfab_Scene",
      "nodes": [
        0
      ]
    }
  ],
  "textures": [
    {
      "sampler": 0,
      "source": 0
    },
    {
      "sampler": 0,
      "source": 1
    }
  ]
}
