{
  "accessors": [
    {
      "bufferView": 2,
      "componentType": 5126,
      "count": 65532,
      "max": [
        3.7102603912353516,
        3.867304801940918,
        11.650287628173828
      ],
      "min": [
        -4.279748916625977,
        -4.927649974822998,
        7.684838771820068
      ],
      "type": "VEC3"
    },
    {
      "bufferView": 2,
      "byteOffset": 786384,
      "componentType": 5126,
      "count": 65532,
      "max": [
        0.9999974966049194,
        0.9999972581863403,
        0.9999997615814209
      ],
      "min": [
        -0.9999955892562866,
        -0.9999901056289673,
        -1.0
      ],
      "type": "VEC3"
    },
    {
      "bufferView": 1,
      "componentType": 5126,
      "count": 65532,
      "max": [
        1.0,
        1.0
      ],
      "min": [
        0.0,
        0.0
      ],
      "type": "VEC2"
    },
    {
      "bufferView": 1,
      "byteOffset": 524256,
      "componentType": 5126,
      "count": 65532,
      "max": [
        1.0,
        1.0
      ],
      "min": [
        0.0,
        0.0
      ],
      "type": "VEC2"
    },
    {
      "bufferView": 1,
      "byteOffset": 1048512,
      "componentType": 5126,
      "count": 65532,
      "max": [
        1.0,
        1.0
      ],
      "min": [
        0.0,
        0.0
      ],
      "type": "VEC2"
    },
    {
      "bufferView": 0,
      "componentType": 5125,
      "count": 323007,
      "type": "SCALAR"
    },
    {
      "bufferView": 2,
      "byteOffset": 1572768,
      "componentType": 5126,
      "count": 65532,
      "max": [
        3.5675177574157715,
        4.377098560333252,
        10.435420036315918
      ],
      "min": [
        -4.297677993774414,
        -4.835951328277588,
        5.4085693359375
      ],
      "type": "VEC3"
    },
    {
      "bufferView": 2,
      "byteOffset": 2359152,
      "componentType": 5126,
      "count": 65532,
      "max": [
        0.9999978542327881,
        0.9999959468841553,
        1.0
      ],
      "min": [
        -0.9999995231628418,
        -0.999987006187439,
        -0.9999994039535522
      ],
      "type": "VEC3"
    },
    {
      "bufferView": 1,
      "byteOffset": 1572768,
      "componentType": 5126,
      "count": 65532,
      "max": [
        1.0,
        1.0
      ],
      "min": [
        0.0,
        0.0
      ],
      "type": "VEC2"
    },
    {
      "bufferView": 1,
      "byteOffset": 2097024,
      "componentType": 5126,
      "count": 65532,
      "max": [
        1.0,
        1.0
      ],
      "min": [
        0.0,
        0.0
      ],
      "type": "VEC2"
    },
    {
      "bufferView": 1,
      "byteOffset": 2621280,
      "componentType": 5126,
      "count": 65532,
      "max": [
        1.0,
        1.0
      ],
      "min": [
        0.0,
        0.0
      ],
      "type": "VEC2"
    },
    {
      "bufferView": 0,
      "byteOffset": 1292028,
      "componentType": 5125,
      "count": 322962,
      "type": "SCALAR"
    },
    {
      "bufferView": 2,
      "byteOffset": 3145536,
      "componentType": 5126,
      "count": 65532,
      "max": [
        3.789170503616333,
        4.362909317016602,
        10.893468856811523
      ],
      "min": [
        -4.4630208015441895,
        -4.804999828338623,
        4.344329357147217
      ],
      "type": "VEC3"
    },
    {
      "bufferView": 2,
      "byteOffset": 3931920,
      "componentType": 5126,
      "count": 65532,
      "max": [
        0.9999994039535522,
        0.9999728202819824,
        1.0
      ],
      "min": [
        -0.9999840259552002,
        -0.9999806880950928,
        -1.0
      ],
      "type": "VEC3"
    },
    {
      "bufferView": 1,
      "byteOffset": 3145536,
      "componentType": 5126,
      "count": 65532,
      "max": [
        1.0,
        1.0
      ],
      "min": [
        0.0,
        0.0
      ],
      "type": "VEC2"
    },
    {
      "bufferView": 1,
      "byteOffset": 3669792,
      "componentType": 5126,
      "count": 65532,
      "max": [
        1.0,
        1.0
      ],
      "min": [
        0.0,
        0.0
      ],
      "type": "VEC2"
    },
    {
      "bufferView": 1,
      "byteOffset": 4194048,
      "componentType": 5126,
      "count": 65532,
      "max": [
        1.0,
        1.0
      ],
      "min": [
        0.0,
        0.0
      ],
      "type": "VEC2"
    },
    {
      "bufferView": 0,
      "byteOffset": 2583876,
      "componentType": 5125,
      "count": 316758,
      "type": "SCALAR"
    },
    {
      "bufferView": 2,
      "byteOffset": 4718304,
      "componentType": 5126,
      "count": 65532,
      "max": [
        4.036050319671631,
        4.348076343536377,
        11.274992942810059
      ],
      "min": [
        -4.446167945861816,
        -4.582214832305908,
        2.135756492614746
      ],
      "type": "VEC3"
    },
    {
      "bufferView": 2,
      "byteOffset": 5504688,
      "componentType": 5126,
      "count": 65532,
      "max": [
        0.9999980926513672,
        0.9999943971633911,
        0.9999986886978149
      ],
      "min": [
        -0.9999977350234985,
        -0.9999994039535522,
        -0.9999985694885254
      ],
      "type": "VEC3"
    },
    {
      "bufferView": 1,
      "byteOffset": 4718304,
      "componentType": 5126,
      "count": 65532,
      "max": [
        1.0,
        1.0
      ],
      "min": [
        0.0,
        0.0
      ],
      "type": "VEC2"
    },
    {
      "bufferView": 1,
      "byteOffset": 5242560,
      "componentType": 5126,
      "count": 65532,
      "max": [
        1.0,
        1.0
      ],
      "min": [
        0.0,
        0.0
      ],
      "type": "VEC2"
    },
    {
      "bufferView": 1,
      "byteOffset": 5766816,
      "componentType": 5126,
      "count": 65532,
      "max": [
        1.0,
        1.0
      ],
      "min": [
        0.0,
        0.0
      ],
      "type": "VEC2"
    },
    {
      "bufferView": 0,
      "byteOffset": 3850908,
      "componentType": 5125,
      "count": 314097,
      "type": "SCALAR"
    },
    {
      "bufferView": 2,
      "byteOffset": 6291072,
      "componentType": 5126,
      "count": 65532,
      "max": [
        3.70841646194458,
        4.203939437866211,
        11.267775535583496
      ],
      "min": [
        -4.151088237762451,
        -4.963342189788818,
        0.0
      ],
      "type": "VEC3"
    },
    {
      "bufferView": 2,
      "byteOffset": 7077456,
      "componentType": 5126,
      "count": 65532,
      "max": [
        0.9999953508377075,
        0.9999979734420776,
        0.9999998807907104
      ],
      "min": [
        -0.9999970197677612,
        -0.9999986886978149,
        -0.9999997615814209
      ],
      "type": "VEC3"
    },
    {
      "bufferView": 1,
      "byteOffset": 6291072,
      "componentType": 5126,
      "count": 65532,
      "max": [
        1.0,
        1.0
      ],
      "min": [
        0.0,
        0.0
      ],
      "type": "VEC2"
    },
    {
      "bufferView": 1,
      "byteOffset": 6815328,
      "componentType": 5126,
      "count": 65532,
      "max": [
        1.0,
        1.0
      ],
      "min": [
        0.0,
        0.0
      ],
      "type": "VEC2"
    },
    {
      "bufferView": 1,
      "byteOffset": 7339584,
      "componentType": 5126,
      "count": 65532,
      "max": [
        1.0,
        1.0
      ],
      "min": [
        0.0,
        0.0
      ],
      "type": "VEC2"
    },
    {
      "bufferView": 0,
      "byteOffset": 5107296,
      "componentType": 5125,
      "count": 317175,
      "type": "SCALAR"
    },
    {
      "bufferView": 2,
      "byteOffset": 7863840,
      "componentType": 5126,
      "count": 65532,
      "max": [
        3.6280324459075928,
        3.8894712924957275,
        11.705859184265137
      ],
      "min": [
        -4.585192680358887,
        -5.034502029418945,
        1.7292213439941406
      ],
      "type": "VEC3"
    },
    {
      "bufferView": 2,
      "byteOffset": 8650224,
      "componentType": 5126,
      "count": 65532,
      "max": [
        0.9999910593032837,
        0.9999942779541016,
        0.9999991655349731
      ],
      "min": [
        -0.9999834299087524,
        -0.9999933242797852,
        -0.9999995231628418
      ],
      "type": "VEC3"
    },
    {
      "bufferView": 1,
      "byteOffset": 7863840,
      "componentType": 5126,
      "count": 65532,
      "max": [
        1.0,
        1.0
      ],
      "min": [
        0.0,
        0.0
      ],
      "type": "VEC2"
    },
    {
      "bufferView": 1,
      "byteOffset": 8388096,
      "componentType": 5126,
      "count": 65532,
      "max": [
        1.0,
        1.0
      ],
      "min": [
        0.0,
        0.0
      ],
      "type": "VEC2"
    },
    {
      "bufferView": 1,
      "byteOffset": 8912352,
      "componentType": 5126,
      "count": 65532,
      "max": [
        1.0,
        1.0
      ],
      "min": [
        0.0,
        0.0
      ],
      "type": "VEC2"
    },
    {
      "bufferView": 0,
      "byteOffset": 6375996,
      "componentType": 5125,
      "count": 315099,
      "type": "SCALAR"
    },
    {
      "bufferView": 2,
      "byteOffset": 9436608,
      "componentType": 5126,
      "count": 65532,
      "max": [
        3.935267448425293,
        4.172059059143066,
        7.160422325134277
      ],
      "min": [
        -4.1903300285339355,
        -4.46962308883667,
        2.228060483932495
      ],
      "type": "VEC3"
    },
    {
      "bufferView": 2,
      "byteOffset": 10222992,
      "componentType": 5126,
      "count": 65532,
      "max": [
        0.9999970197677612,
        1.0,
        1.0
      ],
      "min": [
        -0.9999949932098389,
        -0.9999861717224121,
        -0.9999998807907104
      ],
      "type": "VEC3"
    },
    {
      "bufferView": 1,
      "byteOffset": 9436608,
      "componentType": 5126,
      "count": 65532,
      "max": [
        1.0,
        1.0
      ],
      "min": [
        0.0,
        0.0
      ],
      "type": "VEC2"
    },
    {
      "bufferView": 1,
      "byteOffset": 9960864,
      "componentType": 5126,
      "count": 65532,
      "max": [
        1.0,
        1.0
      ],
      "min": [
        0.0,
        0.0
      ],
      "type": "VEC2"
    },
    {
      "bufferView": 1,
      "byteOffset": 10485120,
      "componentType": 5126,
      "count": 65532,
      "max": [
        1.0,
        1.0
      ],
      "min": [
        0.0,
        0.0
      ],
      "type": "VEC2"
    },
    {
      "bufferView": 0,
      "byteOffset": 7636392,
      "componentType": 5125,
      "count": 323154,
      "type": "SCALAR"
    },
    {
      "bufferView": 2,
      "byteOffset": 11009376,
      "componentType": 5126,
      "count": 22904,
      "max": [
        4.040777206420898,
        4.118110179901123,
        7.449106693267822
      ],
      "min": [
        -4.266022682189941,
        -4.1553826332092285,
        3.4294071197509766
      ],
      "type": "VEC3"
    },
    {
      "bufferView": 2,
      "byteOffset": 11284224,
      "componentType": 5126,
      "count": 22904,
      "max": [
        0.9999945163726807,
        0.9999316930770874,
        0.9999990463256836
      ],
      "min": [
        -0.9999936819076538,
        -0.9999947547912598,
        -0.9999980926513672
      ],
      "type": "VEC3"
    },
    {
      "bufferView": 1,
      "byteOffset": 11009376,
      "componentType": 5126,
      "count": 22904,
      "max": [
        1.0,
        1.0
      ],
      "min": [
        0.0,
        0.0
      ],
      "type": "VEC2"
    },
    {
      "bufferView": 1,
      "byteOffset": 11192608,
      "componentType": 5126,
      "count": 22904,
      "max": [
        1.0,
        1.0
      ],
      "min": [
        0.0,
        0.0
      ],
      "type": "VEC2"
    },
    {
      "bufferView": 1,
      "byteOffset": 11375840,
      "componentType": 5126,
      "count": 22904,
      "max": [
        1.0,
        1.0
      ],
      "min": [
        0.0,
        0.0
      ],
      "type": "VEC2"
    },
    {
      "bufferView": 0,
      "byteOffset": 8929008,
      "componentType": 5125,
      "count": 112884,
      "type": "SCALAR"
    },
    {
      "bufferView": 2,
      "byteOffset": 11559072,
      "componentType": 5126,
      "count": 65533,
      "max": [
        4.219328880310059,
        4.342467784881592,
        11.832145690917969
      ],
      "min": [
        -4.774432182312012,
        -5.183910369873047,
        2.4188156127929688
      ],
      "type": "VEC3"
    },
    {
      "bufferView": 2,
      "byteOffset": 12345468,
      "componentType": 5126,
      "count": 65533,
      "max": [
        0.999275267124176,
        0.9996729493141174,
        0.9999637007713318
      ],
      "min": [
        -0.9997587203979492,
        -0.9982444643974304,
        -0.8910219669342041
      ],
      "type": "VEC3"
    },
    {
      "bufferView": 1,
      "byteOffset": 11559072,
      "componentType": 5126,
      "count": 65533,
      "max": [
        0.885091245174408,
        0.9922091364860535
      ],
      "min": [
        0.07500484585762024,
        -0.000531108002178371
      ],
      "type": "VEC2"
    },
    {
      "bufferView": 0,
      "byteOffset": 9380544,
      "componentType": 5125,
      "count": 98313,
      "type": "SCALAR"
    },
    {
      "bufferView": 2,
      "byteOffset": 13131864,
      "componentType": 5126,
      "count": 65534,
      "max": [
        4.088322162628174,
        4.5330657958984375,
        10.213912010192871
      ],
      "min": [
        -4.64192008972168,
        -4.651590347290039,
        1.574455976486206
      ],
      "type": "VEC3"
    },
    {
      "bufferView": 2,
      "byteOffset": 13918272,
      "componentType": 5126,
      "count": 65534,
      "max": [
        0.9999634027481079,
        0.9998315572738647,
        0.999995768070221
      ],
      "min": [
        -0.9998422861099243,
        -0.9995628595352173,
        -0.9238322973251343
      ],
      "type": "VEC3"
    },
    {
      "bufferView": 1,
      "byteOffset": 12083336,
      "componentType": 5126,
      "count": 65534,
      "max": [
        0.885091245174408,
        0.9922091364860535
      ],
      "min": [
        0.07500484585762024,
        -0.000531108002178371
      ],
      "type": "VEC2"
    },
    {
      "bufferView": 0,
      "byteOffset": 9773796,
      "componentType": 5125,
      "count": 98316,
      "type": "SCALAR"
    },
    {
      "bufferView": 2,
      "byteOffset": 14704680,
      "componentType": 5126,
      "count": 29961,
      "max": [
        3.9330050945281982,
        4.27378511428833,
        10.990840911865234
      ],
      "min": [
        -4.552119731903076,
        -4.987905979156494,
        6.0524821281433105
      ],
      "type": "VEC3"
    },
    {
      "bufferView": 2,
      "byteOffset": 15064212,
      "componentType": 5126,
      "count": 29961,
      "max": [
        0.9998984336853027,
        0.9980013370513916,
        0.9999980330467224
      ],
      "min": [
        -0.9985117316246033,
        -0.999668300151825,
        -0.7947083115577698
      ],
      "type": "VEC3"
    },
    {
      "bufferView": 1,
      "byteOffset": 12607608,
      "componentType": 5126,
      "count": 29961,
      "max": [
        0.885091245174408,
        0.9922091364860535
      ],
      "min": [
        0.07500484585762024,
        -0.000531108002178371
      ],
      "type": "VEC2"
    },
    {
      "bufferView": 0,
      "byteOffset": 10167060,
      "componentType": 5125,
      "count": 44943,
      "type": "SCALAR"
    }
  ],
  "asset": {
    "extras": {
      "author": "Omkar_suryavanshi (https://sketchfab.com/Omkar_suryavanshi)",
      "license": "CC-BY-4.0 (http://creativecommons.org/licenses/by/4.0/)",
      "source": "https://sketchfab.com/3d-models/lowpoly-tree-model-fde8eeadb3fe4137bfb13b8b02566751",
      "title": "Lowpoly Tree Model"
    },
    "generator": "Sketchfab-12.68.0",
    "version": "2.0"
  },
  "bufferViews": [
    {
      "buffer": 0,
      "byteLength": 10346832,
      "name": "floatBufferViews",
      "target": 34963
    },
    {
      "buffer": 0,
      "byteLength": 12847296,
      "byteOffset": 10346832,
      "byteStride": 8,
      "name": "floatBufferViews",
      "target": 34962
    },
    {
      "buffer": 0,
      "byteLength": 15423744,
      "byteOffset": 23194128,
      "byteStride": 12,
      "name": "floatBufferViews",
      "target": 34962
    }
  ],
  "buffers": [
    {
      "byteLength": 38617872,
      "uri": "scene.bin"
    }
  ],
  "materials": [
    {
      "doubleSided": true,
      "name": "woood",
      "pbrMetallicRoughness": {
        "baseColorFactor": [
          0.40395232919355684,
          0.17610343905163361,
          0.05628658768750293,
          1.0
        ],
        "metallicFactor": 0.0
      }
    },
    {
      "doubleSided": true,
      "name": "leaf",
      "pbrMetallicRoughness": {
        "baseColorFactor": [
          0.0283495955391406,
          0.11106511231140416,
          0.01733618502060248,
          1.0
        ],
        "metallicFactor": 0.0
      }
    }
  ],
  "meshes": [
    {
      "name": "tree_woood_0",
      "primitives": [
        {
          "attributes": {
            "NORMAL": 1,
            "POSITION": 0,
            "TEXCOORD_0": 2,
            "TEXCOORD_1": 3,
            "TEXCOORD_2": 4
          },
          "indices": 5,
          "material": 0,
          "mode": 4
        }
      ]
    },
    {
      "name": "tree_woood_0",
      "primitives": [
        {
          "attributes": {
            "NORMAL": 7,
            "POSITION": 6,
            "TEXCOORD_0": 8,
            "TEXCOORD_1": 9,
            "TEXCOORD_2": 10
          },
          "indices": 11,
          "material": 0,
          "mode": 4
        }
      ]
    },
    {
      "name": "tree_woood_0",
      "primitives": [
        {
          "attributes": {
            "NORMAL": 13,
            "POSITION": 12,
            "TEXCOORD_0": 14,
            "TEXCOORD_1": 15,
            "TEXCOORD_2": 16
          },
          "indices": 17,
          "material": 0,
          "mode": 4
        }
      ]
    },
    {
      "name": "tree_woood_0",
      "primitives": [
        {
          "attributes": {
            "NORMAL": 19,
            "POSITION": 18,
            "TEXCOORD_0": 20,
            "TEXCOORD_1": 21,
            "TEXCOORD_2": 22
          },
          "indices": 23,
          "material": 0,
          "mode": 4
        }
      ]
    },
    {
      "name": "tree_woood_0",
      "primitives": [
        {
          "attributes": {
            "NORMAL": 25,
            "POSITION": 24,
            "TEXCOORD_0": 26,
            "TEXCOORD_1": 27,
            "TEXCOORD_2": 28
          },
          "indices": 29,
          "material": 0,
          "mode": 4
        }
      ]
    },
    {
      "name": "tree_woood_0",
      "primitives": [
        {
          "attributes": {
            "NORMAL": 31,
            "POSITION": 30,
            "TEXCOORD_0": 32,
            "TEXCOORD_1": 33,
            "TEXCOORD_2": 34
          },
          "indices": 35,
          "material": 0,
          "mode": 4
        }
      ]
    },
    {
      "name": "tree_woood_0",
      "primitives": [
        {
          "attributes": {
            "NORMAL": 37,
            "POSITION": 36,
            "TEXCOORD_0": 38,
            "TEXCOORD_1": 39,
            "TEXCOORD_2": 40
          },
          "indices": 41,
          "material": 0,
          "mode": 4
        }
      ]
    },
    {
      "name": "tree_woood_0",
      "primitives": [
        {
          "attributes": {
            "NORMAL": 43,
            "POSITION": 42,
            "TEXCOORD_0": 44,
            "TEXCOORD_1": 45,
            "TEXCOORD_2": 46
          },
          "indices": 47,
          "material": 0,
          "mode": 4
        }
      ]
    },
    {
      "name": "leaves_leaf_0",
      "primitives": [
        {
          "attributes": {
            "NORMAL": 49,
            "POSITION": 48,
            "TEXCOORD_0": 50
          },
          "indices": 51,
          "material": 1,
          "mode": 4
        }
      ]
    },
    {
      "name": "leaves_leaf_0",
      "primitives": [
        {
          "attributes": {
            "NORMAL": 53,
            "POSITION": 52,
            "TEXCOORD_0": 54
          },
          "indices": 55,
          "material": 1,
          "mode": 4
        }
      ]
    },
    {
      "name": "leaves_leaf_0",
      "primitives": [
        {
          "attributes": {
            "NORMAL": 57,
            "POSITION": 56,
            "TEXCOORD_0": 58
          },
          "indices": 59,
          "material": 1,
          "mode": 4
        }
      ]
    }
  ],
  "nodes": [
    {
      "children": [
        1
      ],
      "matrix": [
        1.0,
        0.0,
        0.0,
        0.0,
        0.0,
        2.220446049250313e-16,
        -1.0,
        0.0,
        0.0,
        1.0,
        2.220446049250313e-16,
        0.0,
        0.0,
        0.0,
        0.0,
        1.0
      ],
      "name": "Sketchfab_model"
    },
    {
      "children": [
        2
      ],
      "matrix": [
        1.0,
        0.0,
        0.0,
        0.0,
        0.0,
        0.0,
        1.0,
        0.0,
        0.0,
        -1.0,
        0.0,
        0.0,
        0.0,
        0.0,
        0.0,
        1.0
      ],
      "name": "ef8b6b7b02d44773a04428165ca162ff.fbx"
    },
    {
      "children": [
        3
      ],
      "name": "RootNode"
    },
    {
      "children": [
        4,
        5,
        6,
        7,
        8,
        9,
        10,
        11,
        12
      ],
      "matrix": [
        100.0,
        0.0,
        0.0,
        0.0,
        0.0,
        -1.629206793918314e-05,
        -99.99999999999868,
        0.0,
        0.0,
        99.99999999999868,
        -1.629206793918314e-05,
        0.0,
        0.0,
        0.0,
        0.0,
        1.0
      ],
      "name": "tree"
    },
    {
      "mesh": 0,
      "name": "tree_woood_0"
    },
    {
      "mesh": 1,
      "name": "tree_woood_0"
    },
    {
      "mesh": 2,
      "name": "tree_woood_0"
    },
    {
      "mesh": 3,
      "name": "tree_woood_0"
    },
    {
      "mesh": 4,
      "name": "tree_woood_0"
    },
    {
      "mesh": 5,
      "name": "tree_woood_0"
    },
    {
      "mesh": 6,
      "name": "tree_woood_0"
    },
    {
      "mesh": 7,
      "name": "tree_woood_0"
    },
    {
      "children": [
        13,
        14,
        15
      ],
      "matrix": [
        1.0,
        0.0,
        0.0,
        0.0,
        0.0,
        1.0,
        -2.646977960169688e-23,
        0.0,
        0.0,
        2.646977960169688e-23,
        1.0,
        0.0,
        0.0,
        0.0,
        0.0,
        1.0
      ],
      "name": "leaves"
    },
    {
      "mesh": 8,
      "name": "leaves_leaf_0"
    },
    {
      "mesh": 9,
      "name": "leaves_leaf_0"
    },
    {
      "mesh": 10,
      "name": "leaves_leaf_0"
    }
  ],
  "scene": 0,
  "scenes": [
    {
      "name": "Sketchfab_Scene",
      "nodes": [
        0
      ]
    }
  ]
}
